<svg width="230" height="193" viewBox="0 0 230 193" fill="none" xmlns="http://www.w3.org/2000/svg">
<g clip-path="url(#clip0_7_77)">
<path d="M94.7704 45.4159H93.7261V16.6493C93.7261 14.4629 93.2978 12.2979 92.4657 10.2779C91.6336 8.25788 90.414 6.42247 88.8764 4.87643C87.3389 3.3304 85.5136 2.10402 83.5047 1.26731C81.4958 0.430606 79.3427 -3.73579e-05 77.1683 -3.05175e-05H16.5578C14.3834 -3.73579e-05 12.2303 0.430606 10.2214 1.26731C8.2125 2.10402 6.38718 3.3304 4.84965 4.87643C3.31212 6.42247 2.09248 8.25788 1.26038 10.2779C0.428272 12.2979 -3.40136e-06 14.4629 0 16.6493V174.465C-2.04081e-06 176.651 0.428275 178.816 1.26038 180.836C2.09249 182.856 3.31212 184.692 4.84966 186.238C6.38719 187.784 8.2125 189.01 10.2214 189.847C12.2303 190.684 14.3834 191.114 16.5578 191.114H77.1683C79.3427 191.114 81.4958 190.684 83.5047 189.847C85.5136 189.01 87.3389 187.784 88.8764 186.238C90.414 184.692 91.6336 182.856 92.4657 180.836C93.2978 178.816 93.7261 176.651 93.7261 174.465V65.8924H94.7704V45.4159Z" fill="#E6E6E6"/>
<path d="M77.8364 4.33157H69.9247C70.2886 5.22852 70.4275 6.20168 70.3292 7.16531C70.2309 8.12895 69.8984 9.05348 69.361 9.85748C68.8237 10.6615 68.0979 11.3203 67.2477 11.7758C66.3975 12.2313 65.449 12.4696 64.4856 12.4697H29.7626C28.7992 12.4696 27.8507 12.2313 27.0005 11.7758C26.1503 11.3203 25.4245 10.6615 24.8872 9.85748C24.3498 9.05349 24.0174 8.12895 23.9191 7.16531C23.8208 6.20168 23.9596 5.22852 24.3235 4.33157H16.934C15.3101 4.33157 13.7022 4.65317 12.202 5.27801C10.7018 5.90285 9.3387 6.8187 8.19049 7.97326C7.04228 9.12781 6.13147 10.4985 5.51006 12.007C4.88866 13.5155 4.56882 15.1323 4.56882 16.7651V174.349C4.56882 175.982 4.88865 177.599 5.51006 179.107C6.13147 180.616 7.04228 181.987 8.19048 183.141C9.33869 184.296 10.7018 185.211 12.202 185.836C13.7022 186.461 15.3101 186.783 16.934 186.783H77.8364C79.4602 186.783 81.0682 186.461 82.5684 185.836C84.0686 185.211 85.4317 184.296 86.5799 183.141C87.7281 181.987 88.6389 180.616 89.2603 179.107C89.8817 177.599 90.2016 175.982 90.2016 174.349V16.7651C90.2016 15.1323 89.8817 13.5155 89.2603 12.007C88.6389 10.4985 87.7281 9.12781 86.5799 7.97326C85.4317 6.8187 84.0686 5.90285 82.5684 5.27801C81.0681 4.65317 79.4602 4.33157 77.8364 4.33157Z" fill="white"/>
<path d="M29.4422 36.3667H25.8059C25.678 36.3667 25.5554 36.4178 25.465 36.5087C25.3746 36.5996 25.3238 36.7229 25.3238 36.8515V38.4564C25.3238 38.5849 25.3746 38.7082 25.465 38.7992C25.5554 38.8901 25.678 38.9411 25.8059 38.9411H26.4085V41.3458H28.8396V38.9411H29.4422C29.57 38.9411 29.6927 38.8901 29.7831 38.7992C29.8735 38.7082 29.9243 38.5849 29.9243 38.4564V36.8515C29.9243 36.7229 29.8735 36.5996 29.7831 36.5087C29.6927 36.4178 29.57 36.3667 29.4422 36.3667Z" fill="#E6E6E6"/>
<path d="M33.0843 51.0548C30.8573 47.7781 29.7189 43.8768 29.832 39.9096C29.834 39.8181 29.8045 39.7287 29.7484 39.6565C29.6923 39.5844 29.6131 39.534 29.5242 39.514V38.8205H25.6838V39.5043H25.6309C25.5264 39.5045 25.4262 39.5463 25.3524 39.6207C25.2786 39.6952 25.2372 39.796 25.2374 39.9011C25.2374 39.9107 25.2377 39.9203 25.2384 39.9299C25.541 44.1708 24.5193 47.9739 22.1735 51.3393C22.0385 51.5327 21.9695 51.7649 21.9769 52.001L22.3969 65.0625C22.407 65.3539 22.5286 65.63 22.7363 65.8334C22.944 66.0367 23.2218 66.1515 23.5117 66.1538H32.1982C32.4914 66.1514 32.7721 66.034 32.9804 65.8266C33.1888 65.6191 33.3084 65.3381 33.3137 65.0433L33.4755 52.3616C33.4803 51.8962 33.3439 51.4403 33.0843 51.0548Z" fill="#E6E6E6"/>
<path d="M31.7092 55.3934H24.1484C24.0364 55.3934 23.9258 55.4178 23.8242 55.4648C23.7225 55.5118 23.6321 55.5803 23.5592 55.6657C23.4863 55.7512 23.4327 55.8514 23.4019 55.9596C23.3712 56.0678 23.3641 56.1814 23.3811 56.2927L24.5237 63.7604H31.0844L32.4722 56.3178C32.4932 56.2051 32.4893 56.0891 32.4606 55.9781C32.432 55.8671 32.3794 55.7638 32.3066 55.6755C32.2337 55.5872 32.1424 55.5162 32.0392 55.4675C31.9359 55.4187 31.8233 55.3934 31.7092 55.3934Z" fill="white"/>
<path d="M69.9212 75.4941H66.2849C66.1571 75.4941 66.0344 75.5452 65.944 75.6361C65.8536 75.727 65.8028 75.8503 65.8028 75.9788V77.5838C65.8028 77.7123 65.8536 77.8356 65.944 77.9265C66.0344 78.0174 66.1571 78.0685 66.2849 78.0685H66.8875V80.4732H69.3186V78.0685H69.9212C70.0491 78.0685 70.1717 78.0174 70.2621 77.9265C70.3525 77.8356 70.4033 77.7123 70.4033 77.5838V75.9788C70.4033 75.8503 70.3525 75.727 70.2621 75.6361C70.1717 75.5451 70.0491 75.4941 69.9212 75.4941Z" fill="#E6E6E6"/>
<path d="M73.5634 90.1822C71.3364 86.9055 70.1979 83.0041 70.311 79.037C70.3131 78.9455 70.2835 78.856 70.2274 78.7839C70.1713 78.7118 70.0921 78.6614 70.0033 78.6414V77.9479H66.1629V78.6317H66.1099C66.0582 78.6318 66.007 78.6421 65.9592 78.6621C65.9114 78.682 65.868 78.7113 65.8315 78.7481C65.7949 78.785 65.7659 78.8287 65.7462 78.8768C65.7265 78.9249 65.7163 78.9764 65.7164 79.0285C65.7164 79.0381 65.7168 79.0477 65.7175 79.0573C66.02 83.2982 64.9984 87.1013 62.6525 90.4666C62.5175 90.66 62.4486 90.8923 62.456 91.1284L62.8759 104.19C62.886 104.481 63.0076 104.757 63.2153 104.961C63.4231 105.164 63.7009 105.279 63.9908 105.281H72.6772C72.9704 105.279 73.2511 105.161 73.4595 104.954C73.6678 104.747 73.7874 104.465 73.7927 104.171L73.9546 91.489C73.9594 91.0236 73.8229 90.5677 73.5634 90.1822Z" fill="#E6E6E6"/>
<path d="M72.1883 94.5208H64.6274C64.5155 94.5208 64.4049 94.5452 64.3032 94.5922C64.2015 94.6392 64.1111 94.7077 64.0383 94.7931C63.9654 94.8785 63.9117 94.9788 63.881 95.087C63.8503 95.1952 63.8432 95.3088 63.8602 95.4201L65.0027 102.888H71.5635L72.9513 95.4452C72.9723 95.3325 72.9683 95.2165 72.9397 95.1055C72.9111 94.9945 72.8585 94.8911 72.7856 94.8029C72.7128 94.7146 72.6215 94.6436 72.5182 94.5948C72.415 94.5461 72.3023 94.5208 72.1883 94.5208H72.1883Z" fill="white"/>
<path d="M24.33 130.809H22.6051C22.5445 130.809 22.4863 130.833 22.4434 130.876C22.4006 130.919 22.3765 130.978 22.3765 131.039V131.8C22.3765 131.861 22.4006 131.919 22.4434 131.963C22.4863 132.006 22.5445 132.03 22.6051 132.03H22.891V133.171H24.0442V132.03H24.33C24.3907 132.03 24.4488 132.006 24.4917 131.963C24.5346 131.919 24.5587 131.861 24.5587 131.8V131.039C24.5587 130.978 24.5346 130.919 24.4917 130.876C24.4488 130.833 24.3907 130.809 24.33 130.809Z" fill="#E6E6E6"/>
<path d="M26.0577 137.776C25.0013 136.222 24.4613 134.371 24.5149 132.489C24.5159 132.446 24.5019 132.403 24.4753 132.369C24.4487 132.335 24.4111 132.311 24.3689 132.302V131.973H22.5473V132.297H22.5222C22.4976 132.297 22.4733 132.302 22.4506 132.311C22.428 132.321 22.4074 132.335 22.3901 132.352C22.3727 132.37 22.359 132.39 22.3496 132.413C22.3403 132.436 22.3354 132.461 22.3355 132.485C22.3355 132.49 22.3357 132.494 22.336 132.499C22.5041 134.419 21.9889 136.337 20.8821 137.911C20.8181 138.003 20.7854 138.113 20.7889 138.225L20.9881 144.42C20.9929 144.559 21.0506 144.69 21.1491 144.786C21.2476 144.883 21.3794 144.937 21.5169 144.938H25.6373C25.7764 144.937 25.9095 144.881 26.0084 144.783C26.1072 144.684 26.1639 144.551 26.1665 144.411L26.2432 138.396C26.2455 138.175 26.1808 137.959 26.0577 137.776Z" fill="#E6E6E6"/>
<path d="M25.4646 140.053H21.5331V142.03H25.4646V140.053Z" fill="white"/>
<path d="M32.3593 130.809H30.6344C30.5738 130.809 30.5156 130.833 30.4727 130.876C30.4298 130.919 30.4057 130.978 30.4057 131.039V131.8C30.4057 131.861 30.4298 131.919 30.4727 131.963C30.5156 132.006 30.5738 132.03 30.6344 132.03H30.9203V133.171H32.0735V132.03H32.3593C32.4199 132.03 32.4781 132.006 32.521 131.963C32.5639 131.919 32.588 131.861 32.588 131.8V131.039C32.588 130.978 32.5639 130.919 32.521 130.876C32.4781 130.833 32.4199 130.809 32.3593 130.809Z" fill="#E6E6E6"/>
<path d="M34.0869 137.776C33.0306 136.222 32.4905 134.371 32.5442 132.489C32.5452 132.446 32.5311 132.403 32.5045 132.369C32.4779 132.335 32.4404 132.311 32.3982 132.302V131.973H30.5765V132.297H30.5514C30.5269 132.297 30.5026 132.302 30.4799 132.311C30.4572 132.321 30.4367 132.335 30.4193 132.352C30.402 132.37 30.3882 132.39 30.3789 132.413C30.3695 132.436 30.3647 132.461 30.3647 132.485C30.3647 132.49 30.3649 132.494 30.3653 132.499C30.5334 134.419 30.0182 136.337 28.9114 137.911C28.8474 138.003 28.8147 138.113 28.8182 138.225L29.0174 144.42C29.0222 144.559 29.0798 144.69 29.1784 144.786C29.2769 144.883 29.4087 144.937 29.5462 144.938H33.6666C33.8057 144.937 33.9388 144.881 34.0376 144.783C34.1365 144.684 34.1932 144.551 34.1957 144.411L34.2725 138.396C34.2748 138.175 34.21 137.959 34.0869 137.776Z" fill="#E6E6E6"/>
<path d="M33.4939 140.053H29.5624V142.03H33.4939V140.053Z" fill="white"/>
<path d="M40.3886 130.809H38.6637C38.6031 130.809 38.5449 130.833 38.502 130.876C38.4591 130.919 38.435 130.978 38.435 131.039V131.8C38.435 131.861 38.4591 131.919 38.502 131.963C38.5449 132.006 38.6031 132.03 38.6637 132.03H38.9495V133.171H40.1027V132.03H40.3886C40.4492 132.03 40.5074 132.006 40.5503 131.963C40.5932 131.919 40.6172 131.861 40.6172 131.8V131.039C40.6172 130.978 40.5932 130.919 40.5503 130.876C40.5074 130.833 40.4492 130.809 40.3886 130.809Z" fill="#E6E6E6"/>
<path d="M42.1162 137.776C41.0599 136.222 40.5198 134.371 40.5735 132.489C40.5744 132.446 40.5604 132.403 40.5338 132.369C40.5072 132.335 40.4696 132.311 40.4275 132.302V131.973H38.6058V132.297H38.5807C38.5562 132.297 38.5319 132.302 38.5092 132.311C38.4865 132.321 38.4659 132.335 38.4486 132.352C38.4313 132.37 38.4175 132.39 38.4082 132.413C38.3988 132.436 38.394 132.461 38.394 132.485C38.394 132.49 38.3942 132.494 38.3946 132.499C38.5627 134.419 38.0475 136.337 36.9407 137.911C36.8767 138.003 36.844 138.113 36.8475 138.225L37.0467 144.42C37.0514 144.559 37.1091 144.69 37.2077 144.786C37.3062 144.883 37.438 144.937 37.5755 144.938H41.6959C41.8349 144.937 41.9681 144.881 42.0669 144.783C42.1658 144.684 42.2225 144.551 42.225 144.411L42.3018 138.396C42.304 138.175 42.2393 137.959 42.1162 137.776Z" fill="#E6E6E6"/>
<path d="M41.5232 140.053H37.5917V142.03H41.5232V140.053Z" fill="white"/>
<path d="M63.6041 115.672H59.9678C59.9045 115.672 59.8418 115.684 59.7833 115.709C59.7249 115.733 59.6717 115.769 59.6269 115.814C59.5822 115.859 59.5467 115.912 59.5224 115.971C59.4982 116.03 59.4857 116.093 59.4857 116.157V117.762C59.4857 117.89 59.5365 118.013 59.6269 118.104C59.7174 118.195 59.84 118.246 59.9678 118.246H60.5704V120.651H63.0015V118.246H63.6041C63.732 118.246 63.8546 118.195 63.945 118.104C64.0354 118.013 64.0862 117.89 64.0862 117.762V116.157C64.0862 116.093 64.0738 116.03 64.0495 115.971C64.0253 115.912 63.9898 115.859 63.945 115.814C63.9003 115.769 63.8471 115.733 63.7886 115.709C63.7301 115.684 63.6674 115.672 63.6041 115.672Z" fill="#E6E6E6"/>
<path d="M67.2463 130.36C65.0193 127.083 63.8808 123.182 63.9939 119.215C63.996 119.123 63.9664 119.034 63.9103 118.962C63.8542 118.89 63.775 118.839 63.6862 118.819V118.126H59.8458V118.809H59.7929C59.7411 118.81 59.6899 118.82 59.6421 118.84C59.5943 118.86 59.5509 118.889 59.5144 118.926C59.4778 118.963 59.4488 119.006 59.4291 119.055C59.4094 119.103 59.3992 119.154 59.3993 119.206C59.3993 119.216 59.3997 119.225 59.4004 119.235C59.7029 123.476 58.6813 127.279 56.3354 130.644C56.2004 130.838 56.1315 131.07 56.1389 131.306L56.5588 144.368C56.5689 144.659 56.6905 144.935 56.8982 145.139C57.106 145.342 57.3838 145.457 57.6737 145.459H66.3601C66.6533 145.457 66.934 145.339 67.1424 145.132C67.3507 144.924 67.4703 144.643 67.4756 144.348L67.6375 131.667C67.6423 131.201 67.5058 130.745 67.2463 130.36Z" fill="#E6E6E6"/>
<path d="M65.8712 134.699H58.3103C58.1984 134.699 58.0878 134.723 57.9861 134.77C57.8844 134.817 57.794 134.885 57.7212 134.971C57.6483 135.056 57.5946 135.157 57.5639 135.265C57.5332 135.373 57.5261 135.487 57.5431 135.598L58.6856 143.066H65.2464L66.6342 135.623C66.6552 135.51 66.6512 135.394 66.6226 135.283C66.594 135.172 66.5414 135.069 66.4685 134.981C66.3957 134.892 66.3044 134.821 66.2012 134.773C66.0979 134.724 65.9853 134.699 65.8712 134.699Z" fill="white"/>
<path d="M65.5893 67.8353H43.9134C45.4289 59.5967 45.0802 49.6482 43.9134 38.9493H65.5893C64.4535 49.6482 64.1141 59.5967 65.5893 67.8353Z" fill="#E6E6E6"/>
<path d="M54.8819 57.8565C57.7666 57.8565 60.105 55.5051 60.105 52.6045C60.105 49.7039 57.7666 47.3525 54.8819 47.3525C51.9973 47.3525 49.6588 49.7039 49.6588 52.6045C49.6588 55.5051 51.9973 57.8565 54.8819 57.8565Z" fill="white"/>
<path d="M45.7415 106.175H24.0656C25.5811 97.9363 25.2324 87.9878 24.0656 77.2889H45.7415C44.6058 87.9879 44.2664 97.9363 45.7415 106.175Z" fill="#E6E6E6"/>
<path d="M35.0342 96.1961C37.9188 96.1961 40.2573 93.8447 40.2573 90.9441C40.2573 88.0435 37.9188 85.6921 35.0342 85.6921C32.1495 85.6921 29.8111 88.0435 29.8111 90.9441C29.8111 93.8447 32.1495 96.1961 35.0342 96.1961Z" fill="white"/>
<path d="M77.8636 69.6735H56.1877C57.7032 61.4349 57.3545 51.4864 56.1877 40.7875H77.8636C76.7278 51.4864 76.3884 61.4349 77.8636 69.6735Z" fill="#E6E6E6"/>
<path d="M67.1562 59.6947C70.0409 59.6947 72.3793 57.3433 72.3793 54.4427C72.3793 51.5421 70.0409 49.1907 67.1562 49.1907C64.2716 49.1907 61.9331 51.5421 61.9331 54.4427C61.9331 57.3433 64.2716 59.6947 67.1562 59.6947Z" fill="white"/>
<path d="M77.8636 68.3605H56.1877C57.7032 60.1219 57.3545 50.1734 56.1877 39.4745H77.8636C76.7278 50.1735 76.3884 60.1219 77.8636 68.3605Z" fill="#E6E6E6"/>
<path d="M67.1562 58.3817C70.0409 58.3817 72.3793 56.0303 72.3793 53.1297C72.3793 50.2291 70.0409 47.8777 67.1562 47.8777C64.2716 47.8777 61.9331 50.2291 61.9331 53.1297C61.9331 56.0303 64.2716 58.3817 67.1562 58.3817Z" fill="white"/>
<path d="M77.8636 69.6735H56.1877C57.7032 61.4349 57.3545 51.4864 56.1877 40.7875H77.8636C76.7278 51.4864 76.3884 61.4349 77.8636 69.6735Z" fill="#E6E6E6"/>
<path d="M67.1562 59.6947C70.0409 59.6947 72.3793 57.3433 72.3793 54.4427C72.3793 51.5421 70.0409 49.1907 67.1562 49.1907C64.2716 49.1907 61.9331 51.5421 61.9331 54.4427C61.9331 57.3433 64.2716 59.6947 67.1562 59.6947Z" fill="white"/>
<path d="M82.8255 66.2597H11.7914V74.1377H82.8255V66.2597Z" fill="#E6E6E6"/>
<path d="M82.8255 105.387H11.7914V113.265H82.8255V105.387Z" fill="#E6E6E6"/>
<path d="M82.8255 144.514H11.7914V152.392H82.8255V144.514Z" fill="#E6E6E6"/>
<path d="M206.393 176.475L188.696 163.889C194.664 158.043 200.093 149.718 205.284 140.306L222.981 152.892C215.91 160.967 209.919 168.892 206.393 176.475Z" fill="#C7BA76"/>
<path d="M206.397 163.075C209.282 163.075 211.62 160.724 211.62 157.823C211.62 154.923 209.282 152.571 206.397 152.571C203.513 152.571 201.174 154.923 201.174 157.823C201.174 160.724 203.513 163.075 206.397 163.075Z" fill="white"/>
<path d="M121.025 119.042H119.083C119.014 119.042 118.949 119.07 118.9 119.118C118.852 119.167 118.825 119.233 118.825 119.301V120.159C118.825 120.193 118.832 120.226 118.845 120.258C118.858 120.289 118.877 120.318 118.9 120.342C118.924 120.366 118.953 120.385 118.984 120.398C119.015 120.411 119.049 120.418 119.083 120.418H119.405V121.702H120.703V120.418H121.025C121.093 120.418 121.159 120.39 121.207 120.342C121.256 120.293 121.283 120.227 121.283 120.159V119.301C121.283 119.233 121.256 119.167 121.207 119.118C121.159 119.07 121.093 119.042 121.025 119.042Z" fill="#E6E6E6"/>
<path d="M122.971 126.889C121.781 125.138 121.173 123.054 121.233 120.935C121.235 120.886 121.219 120.838 121.189 120.8C121.159 120.761 121.116 120.734 121.069 120.724V120.353H119.017V120.718H118.989C118.962 120.718 118.934 120.724 118.909 120.735C118.883 120.745 118.86 120.761 118.84 120.781C118.821 120.8 118.805 120.824 118.795 120.849C118.784 120.875 118.779 120.903 118.779 120.93C118.779 120.935 118.779 120.941 118.779 120.946C118.969 123.108 118.389 125.268 117.142 127.041C117.07 127.144 117.033 127.268 117.037 127.394L117.261 134.372C117.267 134.528 117.332 134.675 117.443 134.784C117.554 134.892 117.702 134.954 117.857 134.955H122.497C122.654 134.954 122.804 134.891 122.915 134.78C123.027 134.669 123.091 134.519 123.093 134.362L123.18 127.587C123.182 127.338 123.11 127.095 122.971 126.889Z" fill="#C7BA76"/>
<path opacity="0.2" d="M120.62 119.322C120.62 119.47 120.562 119.612 120.457 119.717C120.353 119.822 120.212 119.88 120.065 119.88C119.917 119.88 119.776 119.822 119.672 119.717C119.567 119.612 119.509 119.47 119.509 119.322" fill="black"/>
<path d="M122.067 128.233H118.15V130.859H122.067V128.233Z" fill="white"/>
<path d="M182.498 146.301H178.862C178.734 146.301 178.612 146.352 178.521 146.443C178.431 146.534 178.38 146.657 178.38 146.786V148.391C178.38 148.519 178.431 148.643 178.521 148.734C178.612 148.824 178.734 148.876 178.862 148.876H179.465V151.28H181.896V148.876H182.498C182.626 148.876 182.749 148.824 182.839 148.734C182.93 148.643 182.98 148.519 182.98 148.391V146.786C182.98 146.657 182.93 146.534 182.839 146.443C182.749 146.352 182.626 146.301 182.498 146.301Z" fill="#E6E6E6"/>
<path d="M186.141 160.989C183.914 157.713 182.775 153.811 182.888 149.844C182.89 149.752 182.861 149.663 182.805 149.591C182.748 149.519 182.669 149.468 182.58 149.448V148.755H178.74V149.439H178.687C178.635 149.439 178.584 149.449 178.536 149.469C178.489 149.489 178.445 149.518 178.409 149.555C178.372 149.592 178.343 149.636 178.323 149.684C178.304 149.732 178.293 149.783 178.294 149.835C178.294 149.845 178.294 149.855 178.295 149.864C178.597 154.105 177.576 157.908 175.23 161.274C175.095 161.467 175.026 161.699 175.033 161.935L175.453 174.997C175.463 175.288 175.585 175.564 175.792 175.768C176 175.971 176.278 176.086 176.568 176.088H185.254C185.548 176.086 185.828 175.968 186.037 175.761C186.245 175.554 186.365 175.272 186.37 174.978L186.532 162.296C186.536 161.831 186.4 161.375 186.141 160.989Z" fill="#C7BA76"/>
<path opacity="0.2" d="M181.74 146.824C181.74 147.101 181.631 147.367 181.436 147.564C181.241 147.76 180.976 147.87 180.7 147.87C180.424 147.87 180.16 147.76 179.965 147.564C179.77 147.367 179.66 147.101 179.66 146.824" fill="black"/>
<path d="M184.765 165.328H177.205C177.093 165.328 176.982 165.352 176.88 165.399C176.779 165.446 176.688 165.515 176.615 165.6C176.543 165.686 176.489 165.786 176.458 165.894C176.427 166.002 176.42 166.116 176.437 166.227L177.58 173.695H184.141L185.528 166.252C185.549 166.14 185.545 166.023 185.517 165.912C185.488 165.801 185.436 165.698 185.363 165.61C185.29 165.522 185.199 165.451 185.095 165.402C184.992 165.353 184.879 165.328 184.765 165.328Z" fill="white"/>
<path d="M172.123 176.455H150.448C151.963 168.216 151.614 158.267 150.448 147.569H172.123C170.988 158.267 170.648 168.216 172.123 176.455Z" fill="#C7BA76"/>
<path d="M161.416 166.476C164.301 166.476 166.639 164.124 166.639 161.224C166.639 158.323 164.301 155.972 161.416 155.972C158.531 155.972 156.193 158.323 156.193 161.224C156.193 164.124 158.531 166.476 161.416 166.476Z" fill="white"/>
<path d="M83.4638 85.5463L88.3298 85.1015L91.4265 77.5398L85.897 74.426L83.4638 85.5463Z" fill="#FFB8B8"/>
<path d="M128.122 106.306C128.283 105.9 128.347 105.461 128.307 105.026C128.267 104.591 128.125 104.171 127.892 103.802C127.659 103.433 127.343 103.124 126.968 102.902C126.594 102.68 126.172 102.551 125.738 102.525L118.183 102.072L117.07 105.791L124.848 107.939C125.498 108.119 126.191 108.051 126.795 107.75C127.398 107.449 127.871 106.935 128.122 106.306Z" fill="#FFB8B8"/>
<path d="M120.009 108.002L119.926 101.022L103.144 98.3295L90.2153 83.4198C89.5426 82.6441 88.6132 82.1398 87.5991 82.0004C86.585 81.8609 85.555 82.0958 84.6999 82.6615C84.1822 83.004 83.7456 83.4566 83.421 83.9874C83.0964 84.5183 82.8917 85.1143 82.8213 85.7334C82.751 86.3526 82.8168 86.9796 83.014 87.5704C83.2112 88.1612 83.5351 88.7011 83.9627 89.1522L94.6286 102.351L120.009 108.002Z" fill="#C7BA76"/>
<path d="M79.7037 186.52H84.1274L95.0998 136.636L106.467 152.047L113.103 185.408H117.305L116.42 149.6L101.601 111.346H87.0028C83.0135 118.605 79.884 126.089 83.4638 133.809L79.7037 186.52Z" fill="#2F2E41"/>
<path d="M110.391 189.55C110.342 189.707 110.327 189.873 110.347 190.037C110.367 190.2 110.421 190.358 110.506 190.499C110.591 190.64 110.705 190.761 110.841 190.854C110.976 190.947 111.13 191.01 111.291 191.039L122.116 192.971C122.544 193.049 122.985 192.968 123.357 192.742C123.73 192.516 124.007 192.16 124.136 191.743C124.262 191.344 124.245 190.914 124.087 190.526C123.928 190.139 123.639 189.821 123.271 189.627C120.89 188.398 118.842 186.607 117.301 184.408C116.111 185.522 114.781 185.417 113.369 184.596L111.872 184.784L110.391 189.55Z" fill="#2F2E41"/>
<path d="M77.6555 189.55C77.6065 189.707 77.5915 189.873 77.6114 190.037C77.6313 190.2 77.6857 190.358 77.7708 190.499C77.856 190.64 77.9701 190.761 78.1054 190.854C78.2407 190.947 78.3942 191.01 78.5557 191.039L89.3805 192.971C89.8082 193.049 90.2498 192.968 90.622 192.742C90.9942 192.516 91.2713 192.16 91.401 191.743C91.5271 191.344 91.5095 190.914 91.3512 190.526C91.1929 190.139 90.904 189.821 90.5353 189.627C88.1552 188.398 86.1067 186.607 84.5656 184.408C83.3759 185.522 82.0461 185.417 80.6341 184.596L79.1364 184.784L77.6555 189.55Z" fill="#2F2E41"/>
<path d="M91.5371 80.3197C94.9575 80.3197 97.7303 77.5316 97.7303 74.0923C97.7303 70.653 94.9575 67.8649 91.5371 67.8649C88.1167 67.8649 85.3439 70.653 85.3439 74.0923C85.3439 77.5316 88.1167 80.3197 91.5371 80.3197Z" fill="#FFB8B8"/>
<path d="M86.0074 113.014L102.154 112.569L97.4121 97.5624C100.359 92.8122 97.3932 88.0667 93.1959 83.3223L89.8782 81.0982L84.5697 80.6534C82.2714 83.1263 81.0138 86.3976 81.0604 89.782C81.1655 97.0292 82.4417 104.918 86.0074 113.014Z" fill="#C7BA76"/>
<path d="M123.105 123.115C123.412 122.806 123.642 122.428 123.776 122.012C123.91 121.596 123.943 121.154 123.874 120.722C123.804 120.291 123.633 119.882 123.376 119.53C123.119 119.178 122.781 118.892 122.393 118.696L115.624 115.291L113.146 118.271L119.456 123.322C119.984 123.744 120.647 123.956 121.32 123.918C121.993 123.88 122.628 123.594 123.105 123.115Z" fill="#FFB8B8"/>
<path d="M114.983 121.465L117.637 115.015L103.261 105.902L97.2083 87.08C96.8934 86.1007 96.2361 85.2694 95.3584 84.7401C94.4806 84.2108 93.4417 84.0193 92.4343 84.2011C91.8243 84.3112 91.2458 84.5546 90.7397 84.9143C90.2336 85.2739 89.8123 85.7409 89.5054 86.2823C89.1985 86.8237 89.0137 87.4262 88.9639 88.0473C88.914 88.6685 89.0005 89.293 89.2172 89.8769L93.8595 106.23L114.983 121.465Z" fill="#C7BA76"/>
<path d="M81.3626 71.6458C81.3626 74.069 82.9276 77.8215 84.9015 79.4301C86.2297 80.5124 87.9849 80.4669 88.6617 78.9853C89.3559 77.4655 91.7489 73.8931 95.9608 71.6458C101.575 68.6501 93.9696 63.5249 88.6617 64.3064C84.673 64.8936 81.3626 67.5924 81.3626 71.6458Z" fill="#2F2E41"/>
<path d="M85.1227 68.3097C87.5658 68.3097 89.5464 66.3182 89.5464 63.8616C89.5464 61.4049 87.5658 59.4134 85.1227 59.4134C82.6796 59.4134 80.699 61.4049 80.699 63.8616C80.699 66.3182 82.6796 68.3097 85.1227 68.3097Z" fill="#2F2E41"/>
<path d="M90.21 62.3047C90.2095 61.1833 89.7876 60.1035 89.0287 59.2817C88.2699 58.4599 87.2302 57.9569 86.118 57.8734C86.228 57.8652 86.3378 57.8566 86.4498 57.8566C87.6231 57.8566 88.7482 58.3252 89.5778 59.1594C90.4074 59.9936 90.8735 61.125 90.8735 62.3047C90.8735 63.4845 90.4074 64.6159 89.5778 65.4501C88.7482 66.2843 87.6231 66.7529 86.4498 66.7529C86.3378 66.7529 86.228 66.7443 86.118 66.7361C87.2302 66.6526 88.2699 66.1496 89.0287 65.3278C89.7876 64.506 90.2095 63.4262 90.21 62.3047Z" fill="#2F2E41"/>
<path d="M91.6477 76.3164C92.1974 76.3164 92.643 75.719 92.643 74.982C92.643 74.245 92.1974 73.6475 91.6477 73.6475C91.0979 73.6475 90.6523 74.245 90.6523 74.982C90.6523 75.719 91.0979 76.3164 91.6477 76.3164Z" fill="#FFB8B8"/>
<path d="M216.985 178.362H148.122L133.539 109.045H121.094V105.935H136.047L150.629 175.252H216.985V178.362Z" fill="#3F3D56"/>
<path d="M158.213 191.026C161.874 191.026 164.842 188.042 164.842 184.361C164.842 180.68 161.874 177.696 158.213 177.696C154.553 177.696 151.585 180.68 151.585 184.361C151.585 188.042 154.553 191.026 158.213 191.026Z" fill="#3F3D56"/>
<path d="M207.705 191.026C211.366 191.026 214.334 188.042 214.334 184.361C214.334 180.68 211.366 177.696 207.705 177.696C204.045 177.696 201.077 180.68 201.077 184.361C201.077 188.042 204.045 191.026 207.705 191.026Z" fill="#3F3D56"/>
<path d="M215.73 176.898H148.729L136.908 118.154H226.823C227.282 118.154 227.735 118.254 228.152 118.447C228.569 118.641 228.939 118.922 229.237 119.273C229.535 119.623 229.755 120.035 229.88 120.479C230.005 120.922 230.033 121.388 229.961 121.844L218.867 174.199C218.753 174.953 218.373 175.639 217.797 176.135C217.221 176.63 216.487 176.901 215.73 176.898ZM149.457 176.009H215.73C216.276 176.011 216.806 175.816 217.222 175.458C217.637 175.101 217.911 174.605 217.994 174.061L229.088 121.706C229.139 121.377 229.119 121.041 229.029 120.72C228.939 120.4 228.781 120.103 228.566 119.85C228.35 119.597 228.083 119.394 227.782 119.254C227.482 119.115 227.154 119.043 226.823 119.043H137.981L149.457 176.009Z" fill="#3F3D56"/>
<path d="M161.754 176.71L154.013 118.671L154.885 118.526L162.626 176.565L161.754 176.71Z" fill="#3F3D56"/>
<path d="M204.802 176.264L203.929 176.122L211.445 118.528L212.317 118.67L204.802 176.264Z" fill="#3F3D56"/>
<path d="M184.292 118.599H183.408V176.637H184.292V118.599Z" fill="#3F3D56"/>
<path d="M141.422 134.151L141.42 135.039L226.97 135.248L226.972 134.359L141.422 134.151Z" fill="#3F3D56"/>
<path d="M220.935 161.603L145.778 162.119L145.784 163.008L220.941 162.491L220.935 161.603Z" fill="#3F3D56"/>
<path d="M122.42 109.712C125.105 109.712 127.281 108.518 127.281 107.046C127.281 105.574 125.105 104.38 122.42 104.38C119.735 104.38 117.559 105.574 117.559 107.046C117.559 108.518 119.735 109.712 122.42 109.712Z" fill="#3F3D56"/>
</g>
<defs>
<clipPath id="clip0_7_77">
<rect width="230" height="193" fill="white"/>
</clipPath>
</defs>
</svg>
